<svg data-v-423bf9ae="" xmlns="http://www.w3.org/2000/svg" viewBox="0 0 418.3225627382691 60" class="font"><!----><!----><defs data-v-423bf9ae=""><linearGradient data-v-423bf9ae="" gradientTransform="rotate(25)" id="b1583da0-7002-412b-ab13-f711779d4e0b" x1="0%" y1="0%" x2="100%" y2="0%"><stop data-v-423bf9ae="" offset="0%" style="stop-color: rgb(0, 102, 120); stop-opacity: 1;"></stop><stop data-v-423bf9ae="" offset="100%" style="stop-color: rgb(79, 168, 255); stop-opacity: 1;"></stop></linearGradient></defs><g data-v-423bf9ae="" id="7aefdc8f-4d95-4d35-b33e-752a91f8c06e" fill="url(#b1583da0-7002-412b-ab13-f711779d4e0b)" transform="matrix(4.301075327624733,0,0,4.301075327624733,-5.4193529863000265,1.0322574043924462)"><path d="M1.76 6.33L4.07 6.33L4.21 6.33L6.94 10.50L7.50 10.50L4.69 6.30C6.54 6.08 7.11 4.90 7.11 3.67C7.11 2.02 5.99 1.09 4.03 1.09L1.26 1.09L1.26 10.50L1.76 10.50ZM6.61 3.67C6.61 5.12 5.78 5.94 4.00 5.94L1.76 5.94L1.76 1.51L3.95 1.51C5.74 1.51 6.61 2.37 6.61 3.67ZM11.91 10.64C13.57 10.64 14.13 9.97 14.62 8.99L14.17 8.85C13.72 9.74 13.26 10.22 11.93 10.22C10.18 10.22 9.44 8.86 9.44 7.04L9.44 6.93L14.70 6.93C14.70 6.89 14.71 6.57 14.71 6.52C14.71 4.68 14.14 3.14 11.90 3.14C10.16 3.14 8.92 4.21 8.92 6.87C8.92 9.17 9.86 10.64 11.91 10.64ZM11.90 3.54C13.52 3.54 14.20 4.62 14.20 6.37L14.20 6.51L9.44 6.51C9.48 4.33 10.58 3.54 11.90 3.54ZM21.32 10.50L21.81 10.50L21.81 6.36C21.81 4.63 22.76 3.57 23.97 3.57C25.03 3.57 25.66 3.89 25.66 5.59L25.66 10.50L26.15 10.50L26.15 5.50C26.15 3.54 25.34 3.14 24.08 3.14C22.72 3.14 21.91 4.19 21.73 5.01C21.63 3.46 20.89 3.14 19.73 3.14C18.40 3.14 17.67 4.14 17.43 5.08C17.44 4.58 17.43 3.86 17.40 3.28L16.95 3.28C16.98 3.93 16.98 4.34 16.98 4.75L16.98 10.50L17.47 10.50L17.47 6.36C17.47 4.65 18.42 3.57 19.66 3.57C20.69 3.57 21.32 3.89 21.32 5.59ZM33.78 6.82C33.78 9.32 32.82 10.23 31.28 10.23C29.81 10.23 28.77 9.32 28.77 6.83C28.77 4.51 29.72 3.54 31.29 3.54C32.94 3.54 33.78 4.48 33.78 6.82ZM34.31 6.82C34.31 4.26 33.28 3.14 31.29 3.14C29.40 3.14 28.25 4.26 28.25 6.83C28.25 9.62 29.53 10.64 31.29 10.64C33.05 10.64 34.31 9.69 34.31 6.82ZM35.50 3.67L36.50 3.67L36.50 9.42C36.50 10.08 36.72 10.64 37.70 10.64C38.12 10.64 38.26 10.63 38.56 10.61L38.56 10.18L37.87 10.18C37.21 10.18 36.97 10.00 36.97 9.32L36.97 3.67L38.51 3.67L38.51 3.28L36.97 3.28L36.97 1.23L36.50 1.23L36.50 3.28L35.50 3.28ZM42.95 10.64C44.60 10.64 45.16 9.97 45.65 8.99L45.21 8.85C44.76 9.74 44.30 10.22 42.97 10.22C41.22 10.22 40.47 8.86 40.47 7.04L40.47 6.93L45.74 6.93C45.74 6.89 45.75 6.57 45.75 6.52C45.75 4.68 45.18 3.14 42.94 3.14C41.20 3.14 39.96 4.21 39.96 6.87C39.96 9.17 40.89 10.64 42.95 10.64ZM42.94 3.54C44.56 3.54 45.23 4.62 45.23 6.37L45.23 6.51L40.47 6.51C40.52 4.33 41.62 3.54 42.94 3.54ZM53.27 1.51L56.52 1.51L56.52 1.09L49.53 1.09L49.53 1.51L52.77 1.51L52.77 10.50L53.27 10.50ZM58.67 4.27L58.67-0.24L58.20-0.24L58.20 10.50L58.67 10.50L58.67 6.43C58.67 4.54 59.70 3.56 60.98 3.56C62.23 3.56 62.94 4.17 62.94 5.66L62.94 10.50L63.42 10.50L63.42 5.60C63.42 4.10 62.78 3.14 61.07 3.14C59.61 3.14 58.87 4.12 58.65 5.05C58.65 4.83 58.67 4.38 58.67 4.27ZM68.60 10.64C70.25 10.64 70.81 9.97 71.30 8.99L70.85 8.85C70.41 9.74 69.94 10.22 68.61 10.22C66.86 10.22 66.12 8.86 66.12 7.04L66.12 6.93L71.39 6.93C71.39 6.89 71.40 6.57 71.40 6.52C71.40 4.68 70.83 3.14 68.59 3.14C66.85 3.14 65.60 4.21 65.60 6.87C65.60 9.17 66.54 10.64 68.60 10.64ZM68.59 3.54C70.21 3.54 70.88 4.62 70.88 6.37L70.88 6.51L66.12 6.51C66.16 4.33 67.27 3.54 68.59 3.54ZM76.47 3.71L76.47 3.22L76.24 3.22C75.19 3.22 74.37 4.00 74.13 4.98C74.14 4.30 74.12 3.77 74.10 3.28L73.64 3.28C73.65 3.79 73.67 4.51 73.67 5.03L73.67 10.50L74.16 10.50L74.16 6.06C74.16 5.01 74.87 3.71 76.20 3.71ZM84.13 10.22L83.57 10.22C83.12 10.22 83.01 10.00 83.01 9.60L83.01 5.54C83.01 3.93 82.15 3.14 80.51 3.14C78.96 3.14 78.15 3.86 77.98 5.05L78.47 5.10C78.65 4.00 79.30 3.54 80.50 3.54C81.89 3.54 82.52 4.21 82.52 5.60L82.52 6.33L80.81 6.33C78.83 6.33 77.66 7.07 77.66 8.57C77.66 9.79 78.44 10.64 79.93 10.64C81.27 10.64 82.15 10.01 82.52 8.83L82.52 9.63C82.52 10.22 82.73 10.64 83.47 10.64C83.76 10.64 84 10.63 84.13 10.61ZM79.93 10.23C78.78 10.23 78.13 9.56 78.13 8.55C78.13 7.25 79.17 6.72 80.93 6.72L82.52 6.72L82.52 7.03C82.52 8.82 81.73 10.23 79.93 10.23ZM91.73 6.82C91.73 4.17 90.69 3.14 88.98 3.14C87.58 3.14 86.79 3.85 86.48 4.96L86.44 3.28L85.96 3.28C85.96 3.28 85.99 4.55 85.99 5.21L85.99 13.62L86.46 13.62L86.46 9.18C86.46 8.97 86.45 8.76 86.44 8.60C86.76 10.02 87.79 10.64 88.94 10.64C90.94 10.64 91.73 9.31 91.73 6.82ZM91.22 6.80C91.22 9.41 90.36 10.22 88.87 10.22C87.42 10.22 86.46 9.27 86.46 6.78C86.46 4.40 87.50 3.56 88.97 3.56C90.27 3.56 91.22 4.38 91.22 6.80ZM93.52 13.71C94.33 13.71 94.65 13.44 95.12 12.24L98.52 3.28L98.01 3.28L96.29 7.90C95.90 8.96 95.54 10.04 95.54 10.04C95.54 10.04 95.12 8.93 94.72 7.92L92.93 3.28L92.43 3.28L95.28 10.56L94.70 12.12C94.37 12.99 94.21 13.31 93.34 13.31L92.71 13.31L92.71 13.71Z"></path></g><!----><!----></svg>